<svg width="16" height="16" viewBox="0 0 16 16" fill="none" xmlns="http://www.w3.org/2000/svg">
<path d="M14.0002 7.8333H2.00016C1.36016 7.8333 0.833496 7.30663 0.833496 6.66663V4.4533C0.833496 3.99996 1.14681 3.53997 1.56681 3.3733L7.56681 0.973315C7.82015 0.873315 8.18018 0.873315 8.43351 0.973315L14.4335 3.3733C14.8535 3.53997 15.1668 4.00663 15.1668 4.4533V6.66663C15.1668 7.30663 14.6402 7.8333 14.0002 7.8333ZM8.00016 1.89332C7.9735 1.89332 7.94685 1.89328 7.93351 1.89995L1.94014 4.29998C1.90014 4.31998 1.8335 4.40663 1.8335 4.4533V6.66663C1.8335 6.75997 1.90683 6.8333 2.00016 6.8333H14.0002C14.0935 6.8333 14.1668 6.75997 14.1668 6.66663V4.4533C14.1668 4.40663 14.1068 4.31998 14.0602 4.29998L8.06018 1.89995C8.04685 1.89328 8.02683 1.89332 8.00016 1.89332Z" fill="white"/>
<path d="M14.6668 15.1667H1.3335C1.06016 15.1667 0.833496 14.94 0.833496 14.6667V12.6667C0.833496 12.0267 1.36016 11.5 2.00016 11.5H14.0002C14.6402 11.5 15.1668 12.0267 15.1668 12.6667V14.6667C15.1668 14.94 14.9402 15.1667 14.6668 15.1667ZM1.8335 14.1667H14.1668V12.6667C14.1668 12.5733 14.0935 12.5 14.0002 12.5H2.00016C1.90683 12.5 1.8335 12.5733 1.8335 12.6667V14.1667Z" fill="white"/>
<path d="M2.6665 12.5C2.39317 12.5 2.1665 12.2734 2.1665 12V7.33337C2.1665 7.06004 2.39317 6.83337 2.6665 6.83337C2.93984 6.83337 3.1665 7.06004 3.1665 7.33337V12C3.1665 12.2734 2.93984 12.5 2.6665 12.5Z" fill="white"/>
<path d="M5.3335 12.5C5.06016 12.5 4.8335 12.2734 4.8335 12V7.33337C4.8335 7.06004 5.06016 6.83337 5.3335 6.83337C5.60683 6.83337 5.8335 7.06004 5.8335 7.33337V12C5.8335 12.2734 5.60683 12.5 5.3335 12.5Z" fill="white"/>
<path d="M8 12.5C7.72667 12.5 7.5 12.2734 7.5 12V7.33337C7.5 7.06004 7.72667 6.83337 8 6.83337C8.27333 6.83337 8.5 7.06004 8.5 7.33337V12C8.5 12.2734 8.27333 12.5 8 12.5Z" fill="white"/>
<path d="M10.6665 12.5C10.3932 12.5 10.1665 12.2734 10.1665 12V7.33337C10.1665 7.06004 10.3932 6.83337 10.6665 6.83337C10.9398 6.83337 11.1665 7.06004 11.1665 7.33337V12C11.1665 12.2734 10.9398 12.5 10.6665 12.5Z" fill="white"/>
<path d="M13.3335 12.5C13.0602 12.5 12.8335 12.2734 12.8335 12V7.33337C12.8335 7.06004 13.0602 6.83337 13.3335 6.83337C13.6068 6.83337 13.8335 7.06004 13.8335 7.33337V12C13.8335 12.2734 13.6068 12.5 13.3335 12.5Z" fill="white"/>
<path d="M15.3332 15.1666H0.666504C0.393171 15.1666 0.166504 14.94 0.166504 14.6666C0.166504 14.3933 0.393171 14.1666 0.666504 14.1666H15.3332C15.6065 14.1666 15.8332 14.3933 15.8332 14.6666C15.8332 14.94 15.6065 15.1666 15.3332 15.1666Z" fill="white"/>
<path d="M8 6.16663C7.17333 6.16663 6.5 5.49329 6.5 4.66663C6.5 3.83996 7.17333 3.16663 8 3.16663C8.82667 3.16663 9.5 3.83996 9.5 4.66663C9.5 5.49329 8.82667 6.16663 8 6.16663ZM8 4.16663C7.72667 4.16663 7.5 4.39329 7.5 4.66663C7.5 4.93996 7.72667 5.16663 8 5.16663C8.27333 5.16663 8.5 4.93996 8.5 4.66663C8.5 4.39329 8.27333 4.16663 8 4.16663Z" fill="white"/>
</svg>
