<svg width="16" height="16" viewBox="0 0 16 16" fill="none" xmlns="http://www.w3.org/2000/svg">
<path d="M7.99967 1.33331C4.32367 1.33331 1.33301 4.32398 1.33301 7.99998V10.762C1.33301 11.4446 1.93101 12 2.66634 12H3.33301C3.50982 12 3.67939 11.9297 3.80441 11.8047C3.92944 11.6797 3.99967 11.5101 3.99967 11.3333V7.90465C3.99967 7.72784 3.92944 7.55827 3.80441 7.43324C3.67939 7.30822 3.50982 7.23798 3.33301 7.23798H2.72767C3.09834 4.65798 5.31834 2.66665 7.99967 2.66665C10.681 2.66665 12.901 4.65798 13.2717 7.23798H12.6663C12.4895 7.23798 12.32 7.30822 12.1949 7.43324C12.0699 7.55827 11.9997 7.72784 11.9997 7.90465V12C11.9997 12.7353 11.4017 13.3333 10.6663 13.3333H9.33301V12.6666H6.66634V14.6666H10.6663C12.137 14.6666 13.333 13.4706 13.333 12C14.0683 12 14.6663 11.4446 14.6663 10.762V7.99998C14.6663 4.32398 11.6757 1.33331 7.99967 1.33331Z" fill="#FCFAFA"/>
</svg>
