<svg width="16" height="16" viewBox="0 0 16 16" fill="none" xmlns="http://www.w3.org/2000/svg">
<path d="M1.3335 8.55332V9.99998C1.3335 13.3333 2.66683 14.6666 6.00016 14.6666H10.0002C13.3335 14.6666 14.6668 13.3333 14.6668 9.99998V5.99998C14.6668 2.66665 13.3335 1.33331 10.0002 1.33331H6.00016C2.66683 1.33331 1.3335 2.66665 1.3335 5.99998" stroke="white" stroke-linecap="round" stroke-linejoin="round"/>
<path d="M6.74003 7.43335H4.97337C4.55337 7.43335 4.21338 7.77332 4.21338 8.19332V11.6066H6.74003V7.43335V7.43335Z" stroke="white" stroke-miterlimit="10" stroke-linecap="round" stroke-linejoin="round"/>
<path d="M8.50673 4.39996H7.49339C7.07339 4.39996 6.7334 4.73997 6.7334 5.15997V11.6H9.26007V5.15997C9.26007 4.73997 8.92673 4.39996 8.50673 4.39996Z" stroke="white" stroke-miterlimit="10" stroke-linecap="round" stroke-linejoin="round"/>
<path d="M11.0333 8.56665H9.2666V11.6H11.7933V9.32666C11.7866 8.90666 11.4466 8.56665 11.0333 8.56665Z" stroke="white" stroke-miterlimit="10" stroke-linecap="round" stroke-linejoin="round"/>
</svg>
